<svg width="46" height="48" viewBox="0 0 46 48" fill="none" xmlns="http://www.w3.org/2000/svg">
<path d="M25.1829 4.10479C24.4022 3.49757 24.0118 3.19394 23.5807 3.07723C23.2004 2.97426 22.7996 2.97426 22.4193 3.07723C21.9882 3.19394 21.5978 3.49757 20.8171 4.10479L5.74531 15.8273C4.73782 16.6109 4.23409 17.0027 3.87118 17.4934C3.54971 17.928 3.31022 18.4177 3.16451 18.9383C3 19.526 3 20.1641 3 21.4405V37.5181C3 40.0072 3 41.2518 3.48442 42.2025C3.91051 43.0387 4.59042 43.7187 5.42671 44.1447C6.37742 44.6292 7.622 44.6292 10.1111 44.6292H14.5556C15.1778 44.6292 15.489 44.6292 15.7267 44.5081C15.9357 44.4016 16.1057 44.2316 16.2122 44.0225C16.3333 43.7849 16.3333 43.4738 16.3333 42.8514V28.1847C16.3333 26.9403 16.3333 26.3178 16.5755 25.8425C16.7886 25.4245 17.1286 25.0845 17.5467 24.8714C18.022 24.6292 18.6442 24.6292 19.8889 24.6292H26.1111C27.3558 24.6292 27.978 24.6292 28.4533 24.8714C28.8716 25.0845 29.2113 25.4245 29.4244 25.8425C29.6667 26.3178 29.6667 26.9403 29.6667 28.1847V42.8514C29.6667 43.4738 29.6667 43.7849 29.7878 44.0225C29.8942 44.2316 30.0642 44.4016 30.2733 44.5081C30.5111 44.6292 30.8222 44.6292 31.4444 44.6292H35.8889C38.378 44.6292 39.6227 44.6292 40.5733 44.1447C41.4096 43.7187 42.0896 43.0387 42.5156 42.2025C43 41.2518 43 40.0072 43 37.5181V21.4405C43 20.1641 43 19.526 42.8356 18.9383C42.6898 18.4177 42.4502 17.928 42.1289 17.4934C41.766 17.0027 41.2622 16.6109 40.2547 15.8273L25.1829 4.10479Z" stroke="white" stroke-width="5" stroke-linecap="round" stroke-linejoin="round"/>
</svg>
